<svg width="28" height="28" viewBox="0 0 28 28" fill="none" xmlns="http://www.w3.org/2000/svg">
<g clip-path="url(#clip0_440_10991)">
<path d="M19.6846 9.69938C19.5631 9.38474 19.3771 9.09904 19.1385 8.86067C18.8998 8.62231 18.6139 8.43657 18.2992 8.31542C17.8658 8.15489 17.408 8.07005 16.9458 8.06458C16.1773 8.02958 15.9469 8.02083 14 8.02083C12.0531 8.02083 11.8227 8.02958 11.0542 8.06458C10.5915 8.06988 10.1333 8.15473 9.69938 8.31542C9.38475 8.4369 9.09904 8.62294 8.86068 8.86156C8.62232 9.10017 8.43658 9.38607 8.31542 9.70083C8.1549 10.1342 8.07005 10.592 8.06459 11.0542C8.02959 11.8227 8.02084 12.0531 8.02084 14C8.02084 15.9469 8.02959 16.1773 8.06459 16.9458C8.06989 17.4085 8.15473 17.8668 8.31542 18.3006C8.43691 18.6153 8.62295 18.901 8.86156 19.1393C9.10018 19.3777 9.38608 19.5634 9.70084 19.6846C10.1343 19.8451 10.592 19.93 11.0542 19.9354C11.8227 19.9704 12.0531 19.9777 14 19.9777C15.9469 19.9777 16.1773 19.9704 16.9458 19.934C17.4084 19.9291 17.8667 19.8448 18.3006 19.6846C18.6153 19.5631 18.901 19.3771 19.1393 19.1384C19.3777 18.8998 19.5634 18.6139 19.6846 18.2992C19.8451 17.8658 19.93 17.408 19.9354 16.9458C19.9704 16.1773 19.9777 15.9469 19.9777 14C19.9777 12.0531 19.9704 11.8227 19.934 11.0542C19.9291 10.5916 19.8448 10.1333 19.6846 9.69938ZM14 17.745C13.2593 17.745 12.5353 17.5254 11.9194 17.1139C11.3035 16.7023 10.8235 16.1175 10.5401 15.4332C10.2566 14.7488 10.1825 13.9958 10.327 13.2694C10.4715 12.5429 10.8281 11.8756 11.3519 11.3519C11.8756 10.8281 12.5429 10.4715 13.2694 10.327C13.9959 10.1825 14.7488 10.2566 15.4332 10.5401C16.1175 10.8235 16.7024 11.3035 17.1139 11.9194C17.5254 12.5353 17.745 13.2593 17.745 14C17.745 14.9932 17.3504 15.9458 16.6481 16.6481C15.9458 17.3504 14.9932 17.745 14 17.745ZM17.8923 10.9827C17.7192 10.9827 17.5501 10.9314 17.4062 10.8352C17.2623 10.7391 17.1501 10.6024 17.0839 10.4426C17.0177 10.2827 17.0004 10.1067 17.0341 9.937C17.0679 9.76727 17.1512 9.61136 17.2736 9.48899C17.396 9.36662 17.5519 9.28328 17.7216 9.24952C17.8913 9.21576 18.0673 9.23309 18.2271 9.29931C18.387 9.36554 18.5237 9.47769 18.6198 9.62158C18.716 9.76548 18.7673 9.93465 18.7673 10.1077C18.7673 10.3398 18.6751 10.5623 18.511 10.7264C18.3469 10.8905 18.1244 10.9827 17.8923 10.9827ZM16.4311 14C16.4311 14.4808 16.2885 14.9508 16.0213 15.3506C15.7542 15.7504 15.3745 16.062 14.9303 16.246C14.4861 16.43 13.9973 16.4781 13.5257 16.3843C13.0542 16.2905 12.621 16.059 12.281 15.719C11.941 15.379 11.7095 14.9458 11.6157 14.4743C11.5219 14.0027 11.57 13.5139 11.754 13.0697C11.938 12.6255 12.2496 12.2458 12.6494 11.9787C13.0492 11.7115 13.5192 11.569 14 11.569C14.6448 11.569 15.2631 11.8251 15.719 12.281C16.1749 12.7369 16.4311 13.3552 16.4311 14ZM14 0C11.2311 0 8.52431 0.821085 6.22202 2.35943C3.91974 3.89777 2.12532 6.08427 1.06569 8.64243C0.00606585 11.2006 -0.271181 14.0155 0.269012 16.7313C0.809206 19.447 2.14258 21.9416 4.10051 23.8995C6.05845 25.8574 8.55301 27.1908 11.2687 27.731C13.9845 28.2712 16.7994 27.9939 19.3576 26.9343C21.9157 25.8747 24.1022 24.0803 25.6406 21.778C27.1789 19.4757 28 16.7689 28 14C28 10.287 26.525 6.72601 23.8995 4.10051C21.274 1.475 17.713 0 14 0ZM21.2479 17.0056C21.2356 17.6107 21.1207 18.2094 20.9081 18.776C20.7208 19.2603 20.4345 19.7001 20.0673 20.0673C19.7001 20.4344 19.2603 20.7208 18.7761 20.9081C18.2098 21.1205 17.6117 21.2354 17.0071 21.2479C16.2283 21.2829 15.9804 21.2917 14 21.2917C12.0196 21.2917 11.7717 21.2829 10.9929 21.2479C10.3883 21.2354 9.79019 21.1205 9.22397 20.9081C8.73968 20.7208 8.29987 20.4344 7.93272 20.0673C7.56556 19.7001 7.27917 19.2603 7.09188 18.776C6.87949 18.2098 6.7646 17.6117 6.75209 17.0071C6.71709 16.2283 6.70834 15.9804 6.70834 14C6.70834 12.0196 6.71709 11.7717 6.75209 10.9929C6.76413 10.3884 6.87853 9.79027 7.09042 9.22396C7.2777 8.73927 7.56424 8.29908 7.93167 7.93166C8.29909 7.56424 8.73927 7.27769 9.22397 7.09042C9.79027 6.87852 10.3884 6.76413 10.9929 6.75208C11.7717 6.71708 12.0196 6.70833 14 6.70833C15.9804 6.70833 16.2283 6.71708 17.0071 6.75208C17.6116 6.76413 18.2097 6.87852 18.7761 7.09042C19.2605 7.27786 19.7004 7.56449 20.0675 7.9319C20.4347 8.29931 20.721 8.73941 20.9081 9.22396C21.1205 9.79018 21.2354 10.3883 21.2479 10.9929C21.2829 11.7717 21.2917 12.0196 21.2917 14C21.2917 15.9804 21.2829 16.2283 21.2479 17.0071V17.0056Z" fill="black"/>
</g>
<defs>
<clipPath id="clip0_440_10991">
<rect width="28" height="28" fill="white"/>
</clipPath>
</defs>
</svg>
