<svg width="16" height="16" viewBox="0 0 16 16" fill="none" xmlns="http://www.w3.org/2000/svg">
<path d="M7.99992 0C4.80068 0 2.21729 2.5834 2.21729 5.78263C2.21729 6.8981 2.57362 7.96322 3.06938 8.83852L6.83797 15.3609C7.07423 15.7869 7.55063 16 7.99992 16C8.44924 16 8.90236 15.7869 9.16187 15.3609L12.9305 8.84239C13.4301 7.96702 13.7826 6.92127 13.7826 5.78643C13.7826 2.58727 11.1992 0 7.99992 0ZM7.99992 7.4907C6.83797 7.4907 5.88904 6.54177 5.88904 5.37982C5.88904 4.21788 6.83797 3.26895 7.99992 3.26895C9.16187 3.26895 10.1108 4.21788 10.1108 5.37982C10.1108 6.54565 9.16187 7.4907 7.99992 7.4907Z" fill="black"/>
</svg>
