<svg width="28" height="28" viewBox="0 0 28 28" fill="none" xmlns="http://www.w3.org/2000/svg">
<g clip-path="url(#clip0_14364_48371)">
<rect width="28" height="28" rx="14" fill="white"/>
<g clip-path="url(#clip1_14364_48371)">
<path fill-rule="evenodd" clip-rule="evenodd" d="M28 14C28 21.732 21.732 28 14 28C6.26801 28 0 21.732 0 14C0 6.26801 6.26801 0 14 0C21.732 0 28 6.26801 28 14ZM9.275 6.9125C10.4831 6.9125 11.4625 7.89188 11.4625 9.1V14.4375C11.4625 15.6456 10.4831 16.625 9.275 16.625C8.06688 16.625 7.0875 15.6456 7.0875 14.4375V9.1C7.0875 7.89188 8.06688 6.9125 9.275 6.9125ZM14 11.375C15.2081 11.375 16.1875 12.3544 16.1875 13.5625V14.4375C16.1875 15.6456 15.2081 16.625 14 16.625C12.7919 16.625 11.8125 15.6456 11.8125 14.4375V13.5625C11.8125 12.3544 12.7919 11.375 14 11.375ZM20.9125 13.5625C20.9125 12.3544 19.9331 11.375 18.725 11.375C17.5169 11.375 16.5375 12.3544 16.5375 13.5625V18.8562C16.5375 20.0644 17.5169 21.0437 18.725 21.0437C19.9331 21.0437 20.9125 20.0644 20.9125 18.8562V13.5625Z" fill="#0AA110"/>
</g>
</g>
<defs>
<clipPath id="clip0_14364_48371">
<rect width="28" height="28" rx="14" fill="white"/>
</clipPath>
<clipPath id="clip1_14364_48371">
<rect width="28" height="28" fill="white"/>
</clipPath>
</defs>
</svg>
